<svg xmlns="http://www.w3.org/2000/svg" viewBox="0 0 1200 820" role="img" aria-label="Sample archival illustration">
  <rect width="1200" height="820" fill="#d6c39b"/>
  <rect x="45" y="45" width="1110" height="730" fill="#eadbbd" stroke="#775a33" stroke-width="12"/>
  <path d="M160 690l160-390h560l160 390z" fill="#c5ab78" opacity="0.85" stroke="#5d472b" stroke-width="8"/>
  <path d="M320 300v390M880 300v390" stroke="#5d472b" stroke-width="10"/>
  <path d="M450 690l60-390M750 690l-60-390" stroke="#7a5d32" stroke-width="8"/>
  <path d="M520 520h160M500 570h200M480 620h240" stroke="#5d472b" stroke-width="8"/>
  <path d="M210 335h145v255H210zM845 335h145v255H845z" fill="#b99c6b" stroke="#5d472b" stroke-width="8"/>
  <path d="M250 390h65M250 445h65M885 390h65M885 445h65" stroke="#5d472b" stroke-width="7"/>
  <circle cx="600" cy="260" r="34" fill="#f2e7ce" opacity="0.6"/>
  <text x="600" y="110" text-anchor="middle" fill="#4d3a24" font-family="Georgia, serif" font-size="48" font-weight="700">ARCHIVE RECORD</text>
  <text x="600" y="750" text-anchor="middle" fill="#4d3a24" font-family="Georgia, serif" font-size="34">Street, tramway, market traces</text>
</svg>
