<svg xmlns="http://www.w3.org/2000/svg" viewBox="0 0 1200 820" role="img" aria-label="Sample archival illustration">
  <rect width="1200" height="820" fill="#d8c39b"/>
  <rect x="45" y="45" width="1110" height="730" fill="#eadbbd" stroke="#745832" stroke-width="12"/>
  <path d="M140 690l180-400h560l180 400z" fill="#c5ab78" stroke="#5d472b" stroke-width="8"/>
  <path d="M520 690l35-400M680 690l-35-400" stroke="#5d472b" stroke-width="8"/>
  <path d="M165 320h175v300H165zM860 320h175v300H860z" fill="#b99c6b" stroke="#5d472b" stroke-width="8"/>
  <path d="M205 380h88M205 438h88M205 496h88M905 380h88M905 438h88M905 496h88" stroke="#5d472b" stroke-width="7"/>
  <path d="M600 620V430" stroke="#5d472b" stroke-width="10"/>
  <circle cx="600" cy="400" r="35" fill="#f2e7ce" stroke="#5d472b" stroke-width="6"/>
  <path d="M340 630h80l-20-60h-40zM780 630h80l-20-60h-40z" fill="#8fa3a2" stroke="#5d472b" stroke-width="7"/>
  <text x="600" y="110" text-anchor="middle" fill="#4d3a24" font-family="Georgia, serif" font-size="48" font-weight="700">ARCHIVE RECORD</text>
  <text x="600" y="750" text-anchor="middle" fill="#4d3a24" font-family="Georgia, serif" font-size="34">Broad modern avenue traces</text>
</svg>
