<svg xmlns="http://www.w3.org/2000/svg" viewBox="0 0 1200 820" role="img" aria-label="Sample archival illustration">
  <rect width="1200" height="820" fill="#d5c29a"/>
  <rect x="45" y="45" width="1110" height="730" fill="#eadbbd" stroke="#755832" stroke-width="12"/>
  <path d="M120 675h960" stroke="#5d472b" stroke-width="12"/>
  <path d="M180 675V360h135v315M370 675V285h150v390M575 675V415h125v260M770 675V335h180v340" fill="#b99c6b" stroke="#5d472b" stroke-width="9"/>
  <path d="M175 360l140-35M360 285l160-60M760 335l190-45" stroke="#5d472b" stroke-width="9"/>
  <path d="M210 420h55M210 480h55M405 350h70M405 420h70M610 475h52M810 400h90M810 470h90" stroke="#5d472b" stroke-width="7"/>
  <path d="M250 675l-90 55M415 675l-105 55M660 675l80 55M880 675l125 55" stroke="#7b2d26" stroke-width="10"/>
  <path d="M650 240c-40-80 65-105 20-175 105 75 120 160 55 230z" fill="#b96f3a" opacity="0.5"/>
  <text x="600" y="110" text-anchor="middle" fill="#4d3a24" font-family="Georgia, serif" font-size="48" font-weight="700">ARCHIVE RECORD</text>
  <text x="600" y="750" text-anchor="middle" fill="#4d3a24" font-family="Georgia, serif" font-size="34">Earthquake damage traces</text>
</svg>
