<svg xmlns="http://www.w3.org/2000/svg" viewBox="0 0 1200 820" role="img" aria-label="Sample archival illustration">
  <rect width="1200" height="820" fill="#d5c29b"/>
  <rect x="45" y="45" width="1110" height="730" fill="#eadbbd" stroke="#765a33" stroke-width="12"/>
  <path d="M90 590c150-150 230-220 360-210 115 9 175 105 295 100 120-4 185-95 365-210v420H90z" fill="#9eaa82" opacity="0.75" stroke="#5d472b" stroke-width="8"/>
  <path d="M160 700c180-140 295-210 440-215 145-5 255 85 440 205" fill="none" stroke="#5d472b" stroke-width="24"/>
  <path d="M170 700c180-115 300-170 430-174 130-4 245 70 430 164" fill="none" stroke="#d8c49d" stroke-width="12"/>
  <path d="M320 520h150v120H320zM755 490h120v110H755z" fill="#b99c6b" stroke="#5d472b" stroke-width="8"/>
  <path d="M350 555h85M785 530h60" stroke="#5d472b" stroke-width="7"/>
  <path d="M225 335l95-100 105 110M755 305l125-135 140 145" fill="none" stroke="#5d472b" stroke-width="12"/>
  <text x="600" y="110" text-anchor="middle" fill="#4d3a24" font-family="Georgia, serif" font-size="48" font-weight="700">ARCHIVE RECORD</text>
  <text x="600" y="750" text-anchor="middle" fill="#4d3a24" font-family="Georgia, serif" font-size="34">Mountain road and campaign memory traces</text>
</svg>
