<svg xmlns="http://www.w3.org/2000/svg" viewBox="0 0 1200 820" role="img" aria-label="Sample archival illustration">
  <rect width="1200" height="820" fill="#d1bd94"/>
  <rect x="45" y="45" width="1110" height="730" fill="#eadbbd" stroke="#755832" stroke-width="12"/>
  <path d="M210 660V350h780v310z" fill="#b99c6b" stroke="#5d472b" stroke-width="10"/>
  <path d="M560 660V255h90v405" fill="#a98958" stroke="#5d472b" stroke-width="10"/>
  <path d="M535 255c20-90 95-90 140 0" fill="#cbb489" stroke="#5d472b" stroke-width="9"/>
  <circle cx="605" cy="325" r="36" fill="#eadbbd" stroke="#5d472b" stroke-width="8"/>
  <path d="M275 420h110v240H275zM815 420h110v240H815zM445 445h80v215H445zM690 445h80v215H690z" fill="#eadbbd" stroke="#5d472b" stroke-width="8"/>
  <path d="M170 660h860" stroke="#5d472b" stroke-width="12"/>
  <path d="M260 710h680M310 690l-35 40M420 690l-35 40M530 690l-35 40M640 690l-35 40M750 690l-35 40M860 690l-35 40" stroke="#5d472b" stroke-width="8"/>
  <text x="600" y="110" text-anchor="middle" fill="#4d3a24" font-family="Georgia, serif" font-size="48" font-weight="700">ARCHIVE RECORD</text>
  <text x="600" y="750" text-anchor="middle" fill="#4d3a24" font-family="Georgia, serif" font-size="34">Railway terminus traces</text>
</svg>
